<svg width="28" height="25" viewBox="0 0 28 25" fill="none" xmlns="http://www.w3.org/2000/svg">
<path d="M22.4944 24.4871H17.9523C17.5954 24.4871 17.3034 24.1428 17.3034 23.7219V21.1712C17.3034 20.7503 17.5954 20.406 17.9523 20.406H22.4944C23.4515 20.406 24.2248 19.4941 24.2248 18.3654V6.12179C24.2248 4.99308 23.4515 4.08119 22.4944 4.08119H17.9523C17.5954 4.08119 17.3034 3.73684 17.3034 3.31597V0.765223C17.3034 0.34435 17.5954 0 17.9523 0H22.4944C25.3603 0 27.6855 2.74205 27.6855 6.12179V18.3654C27.6855 21.7451 25.3603 24.4871 22.4944 24.4871ZM19.953 11.6697L10.8687 0.956529C10.0576 0 8.65171 0.66957 8.65171 2.0406V8.16238H1.29776C0.578583 8.16238 0 8.8447 0 9.69283V15.8146C0 16.6627 0.578583 17.3451 1.29776 17.3451H8.65171V23.4668C8.65171 24.8379 10.0576 25.5074 10.8687 24.5509L19.953 13.8378C20.4559 13.2384 20.4559 12.2691 19.953 11.6697Z" fill="white"/>
</svg>
