<svg width="25" height="25" viewBox="0 0 25 25" fill="none" xmlns="http://www.w3.org/2000/svg">
<path d="M14.4531 0H23.8281C24.4753 0 25 0.599609 25 1.33929V10.2679C25 11.0075 24.4753 11.6071 23.8281 11.6071H14.4531C13.8059 11.6071 13.2812 11.0075 13.2812 10.2679V1.33929C13.2812 0.599609 13.8059 0 14.4531 0ZM10.5469 0H1.17188C0.524658 0 0 0.599609 0 1.33929V10.2679C0 11.0075 0.524658 11.6071 1.17188 11.6071H10.5469C11.1941 11.6071 11.7188 11.0075 11.7188 10.2679V1.33929C11.7188 0.599609 11.1941 0 10.5469 0ZM0 14.7321V23.6607C0 24.4004 0.524658 25 1.17188 25H10.5469C11.1941 25 11.7188 24.4004 11.7188 23.6607V14.7321C11.7188 13.9925 11.1941 13.3929 10.5469 13.3929H1.17188C0.524658 13.3929 0 13.9925 0 14.7321ZM14.4531 25H23.8281C24.4753 25 25 24.4004 25 23.6607V14.7321C25 13.9925 24.4753 13.3929 23.8281 13.3929H14.4531C13.8059 13.3929 13.2812 13.9925 13.2812 14.7321V23.6607C13.2812 24.4004 13.8059 25 14.4531 25Z" fill="white"/>
</svg>
