<svg width="50" height="50" viewBox="0 0 50 50" fill="none" xmlns="http://www.w3.org/2000/svg">
<path d="M25.0554 0C10.9395 0 0 10.3171 0 24.2522C0 31.5409 2.99496 37.8396 7.86996 42.1907C8.71169 42.9478 8.53831 43.3863 8.68145 48.0609C8.69272 48.3884 8.78393 48.7081 8.94713 48.9922C9.11032 49.2762 9.34054 49.5161 9.61771 49.6908C9.89488 49.8655 10.2106 49.9697 10.5373 49.9943C10.8639 50.019 11.1917 49.9633 11.4919 49.8322C16.8256 47.4833 16.8942 47.2978 17.7984 47.5438C33.251 51.797 50 41.9074 50 24.2522C50 10.3171 39.1724 0 25.0554 0ZM40.0998 18.6633L32.7409 30.314C32.463 30.7522 32.0977 31.1281 31.6677 31.4184C31.2377 31.7087 30.7524 31.9071 30.2422 32.0011C29.732 32.0951 29.2079 32.0826 28.7027 31.9646C28.1976 31.8466 27.7222 31.6254 27.3065 31.3151L21.4516 26.9328C21.1899 26.7365 20.8715 26.6304 20.5444 26.6304C20.2172 26.6304 19.8988 26.7365 19.6371 26.9328L11.7369 32.9251C10.6825 33.7245 9.30141 32.4613 10.0121 31.3454L17.371 19.6946C17.6488 19.2563 18.0141 18.8802 18.444 18.5899C18.874 18.2995 19.3593 18.1011 19.8696 18.0071C20.3798 17.9131 20.904 17.9255 21.4092 18.0437C21.9144 18.1618 22.3898 18.383 22.8054 18.6935L28.6583 23.0748C28.92 23.2711 29.2384 23.3772 29.5655 23.3772C29.8927 23.3772 30.211 23.2711 30.4728 23.0748L38.377 17.0886C39.4294 16.2841 40.8105 17.5463 40.0998 18.6633Z" fill="white"/>
</svg>
